<mxfile host="app.diagrams.net" agent="Mozilla/5.0 (Windows NT 10.0; Win64; x64) AppleWebKit/537.36 (KHTML, like Gecko) Chrome/128.0.0.0 Safari/537.36" version="24.7.7">
  <diagram name="Page-1" id="thCY2qGJAH8xrWUbhKKs">
    <mxGraphModel dx="1034" dy="739" grid="1" gridSize="10" guides="1" tooltips="1" connect="1" arrows="1" fold="1" page="0" pageScale="1" pageWidth="850" pageHeight="1100" math="0" shadow="0">
      <root>
        <mxCell id="0" />
        <mxCell id="1" parent="0" />
        <mxCell id="f49XREWLHljqlw2hQkl0-1" value="" style="rounded=0;whiteSpace=wrap;html=1;fillColor=none;strokeColor=none;" vertex="1" parent="1">
          <mxGeometry x="500" y="50" width="920" height="160" as="geometry" />
        </mxCell>
        <mxCell id="NJidPr8Sat6VWc2-1qH8-3" value="&lt;font style=&quot;font-size: 14px;&quot;&gt;Developer&lt;/font&gt;" style="sketch=0;outlineConnect=0;fontColor=#232F3E;gradientColor=none;fillColor=#232F3D;strokeColor=none;dashed=0;verticalLabelPosition=bottom;verticalAlign=top;align=center;html=1;fontSize=12;fontStyle=0;aspect=fixed;pointerEvents=1;shape=mxgraph.aws4.user;" parent="1" vertex="1">
          <mxGeometry x="520" y="80" width="80" height="80" as="geometry" />
        </mxCell>
        <mxCell id="NJidPr8Sat6VWc2-1qH8-10" value="&lt;font style=&quot;font-size: 14px;&quot;&gt;GitHub&lt;/font&gt;" style="dashed=0;outlineConnect=0;html=1;align=center;labelPosition=center;verticalLabelPosition=bottom;verticalAlign=top;shape=mxgraph.weblogos.github;aspect=fixed;" parent="1" vertex="1">
          <mxGeometry x="920" y="80" width="80" height="80" as="geometry" />
        </mxCell>
        <mxCell id="NJidPr8Sat6VWc2-1qH8-13" style="edgeStyle=orthogonalEdgeStyle;rounded=0;orthogonalLoop=1;jettySize=auto;html=1;exitX=1;exitY=0.5;exitDx=0;exitDy=0;entryX=0;entryY=0.25;entryDx=0;entryDy=0;dashed=1;" parent="1" source="NJidPr8Sat6VWc2-1qH8-14" edge="1">
          <mxGeometry relative="1" as="geometry">
            <mxPoint x="600" y="105" as="sourcePoint" />
            <mxPoint x="920" y="100" as="targetPoint" />
          </mxGeometry>
        </mxCell>
        <mxCell id="NJidPr8Sat6VWc2-1qH8-18" style="edgeStyle=orthogonalEdgeStyle;rounded=0;orthogonalLoop=1;jettySize=auto;html=1;exitX=1;exitY=0.75;exitDx=0;exitDy=0;entryX=0;entryY=0.5;entryDx=0;entryDy=0;endArrow=none;endFill=0;dashed=1;" parent="1" target="NJidPr8Sat6VWc2-1qH8-17" edge="1">
          <mxGeometry relative="1" as="geometry">
            <mxPoint x="600" y="140" as="sourcePoint" />
          </mxGeometry>
        </mxCell>
        <mxCell id="NJidPr8Sat6VWc2-1qH8-25" style="edgeStyle=orthogonalEdgeStyle;rounded=0;orthogonalLoop=1;jettySize=auto;html=1;exitX=1;exitY=0.5;exitDx=0;exitDy=0;entryX=0;entryY=0.25;entryDx=0;entryDy=0;dashed=1;" parent="1" source="NJidPr8Sat6VWc2-1qH8-23" edge="1">
          <mxGeometry relative="1" as="geometry">
            <mxPoint x="1320" y="100" as="targetPoint" />
          </mxGeometry>
        </mxCell>
        <mxCell id="NJidPr8Sat6VWc2-1qH8-15" value="" style="edgeStyle=orthogonalEdgeStyle;rounded=0;orthogonalLoop=1;jettySize=auto;html=1;exitX=1;exitY=0.25;exitDx=0;exitDy=0;entryX=0;entryY=0.5;entryDx=0;entryDy=0;endArrow=none;endFill=0;dashed=1;" parent="1" target="NJidPr8Sat6VWc2-1qH8-14" edge="1">
          <mxGeometry relative="1" as="geometry">
            <mxPoint x="600" y="100" as="sourcePoint" />
            <mxPoint x="920" y="100" as="targetPoint" />
          </mxGeometry>
        </mxCell>
        <mxCell id="NJidPr8Sat6VWc2-1qH8-14" value="Push Update To Branch" style="rounded=0;whiteSpace=wrap;html=1;fillColor=#fff2cc;strokeColor=#d6b656;" parent="1" vertex="1">
          <mxGeometry x="720" y="85" width="160" height="30" as="geometry" />
        </mxCell>
        <mxCell id="NJidPr8Sat6VWc2-1qH8-19" style="edgeStyle=orthogonalEdgeStyle;rounded=0;orthogonalLoop=1;jettySize=auto;html=1;exitX=1;exitY=0.5;exitDx=0;exitDy=0;entryX=0;entryY=0.75;entryDx=0;entryDy=0;dashed=1;" parent="1" source="NJidPr8Sat6VWc2-1qH8-17" edge="1">
          <mxGeometry relative="1" as="geometry">
            <mxPoint x="920" y="140" as="targetPoint" />
          </mxGeometry>
        </mxCell>
        <mxCell id="NJidPr8Sat6VWc2-1qH8-17" value="Create Pull Request" style="rounded=0;whiteSpace=wrap;html=1;fillColor=#fff2cc;strokeColor=#d6b656;" parent="1" vertex="1">
          <mxGeometry x="640" y="125" width="140" height="30" as="geometry" />
        </mxCell>
        <mxCell id="NJidPr8Sat6VWc2-1qH8-21" value="" style="sketch=0;outlineConnect=0;fontColor=#232F3E;gradientColor=none;fillColor=#232F3D;strokeColor=none;dashed=0;verticalLabelPosition=bottom;verticalAlign=top;align=center;html=1;fontSize=12;fontStyle=0;aspect=fixed;pointerEvents=1;shape=mxgraph.aws4.user;" parent="1" vertex="1">
          <mxGeometry x="1320" y="80" width="80" height="80" as="geometry" />
        </mxCell>
        <mxCell id="NJidPr8Sat6VWc2-1qH8-27" style="edgeStyle=orthogonalEdgeStyle;rounded=0;orthogonalLoop=1;jettySize=auto;html=1;exitX=0;exitY=0.75;exitDx=0;exitDy=0;entryX=1;entryY=0.75;entryDx=0;entryDy=0;dashed=1;" parent="1" edge="1">
          <mxGeometry relative="1" as="geometry">
            <mxPoint x="1320" y="140" as="sourcePoint" />
            <mxPoint x="1000" y="140" as="targetPoint" />
          </mxGeometry>
        </mxCell>
        <mxCell id="NJidPr8Sat6VWc2-1qH8-26" value="" style="edgeStyle=orthogonalEdgeStyle;rounded=0;orthogonalLoop=1;jettySize=auto;html=1;exitX=1;exitY=0.25;exitDx=0;exitDy=0;entryX=0;entryY=0.5;entryDx=0;entryDy=0;endArrow=none;endFill=0;dashed=1;" parent="1" target="NJidPr8Sat6VWc2-1qH8-23" edge="1">
          <mxGeometry relative="1" as="geometry">
            <mxPoint x="1000" y="100" as="sourcePoint" />
            <mxPoint x="1320" y="100" as="targetPoint" />
          </mxGeometry>
        </mxCell>
        <mxCell id="NJidPr8Sat6VWc2-1qH8-23" value="Manually Review Pull Request" style="rounded=0;whiteSpace=wrap;html=1;fillColor=#dae8fc;strokeColor=#6c8ebf;" parent="1" vertex="1">
          <mxGeometry x="1100" y="85" width="180" height="30" as="geometry" />
        </mxCell>
        <mxCell id="NJidPr8Sat6VWc2-1qH8-28" value="Approve Pull Request" style="rounded=0;whiteSpace=wrap;html=1;fillColor=#d5e8d4;strokeColor=#82b366;" parent="1" vertex="1">
          <mxGeometry x="1040" y="125" width="140" height="30" as="geometry" />
        </mxCell>
        <mxCell id="NJidPr8Sat6VWc2-1qH8-68" value="&lt;span style=&quot;color: rgb(35, 47, 62); font-family: Helvetica; font-size: 14px; font-style: normal; font-variant-ligatures: normal; font-variant-caps: normal; font-weight: 400; letter-spacing: normal; orphans: 2; text-indent: 0px; text-transform: none; widows: 2; word-spacing: 0px; -webkit-text-stroke-width: 0px; white-space: nowrap; background-color: rgb(255, 255, 255); text-decoration-thickness: initial; text-decoration-style: initial; text-decoration-color: initial; float: none; display: inline !important;&quot;&gt;Senior&lt;/span&gt;&lt;div&gt;&lt;span style=&quot;color: rgb(35, 47, 62); font-family: Helvetica; font-size: 14px; font-style: normal; font-variant-ligatures: normal; font-variant-caps: normal; font-weight: 400; letter-spacing: normal; orphans: 2; text-indent: 0px; text-transform: none; widows: 2; word-spacing: 0px; -webkit-text-stroke-width: 0px; white-space: nowrap; background-color: rgb(255, 255, 255); text-decoration-thickness: initial; text-decoration-style: initial; text-decoration-color: initial; float: none; display: inline !important;&quot;&gt;Developer&lt;/span&gt;&lt;/div&gt;" style="text;html=1;align=center;whiteSpace=wrap;" parent="1" vertex="1">
          <mxGeometry x="1320" y="160" width="80" height="40" as="geometry" />
        </mxCell>
      </root>
    </mxGraphModel>
  </diagram>
</mxfile>
